<svg xmlns="http://www.w3.org/2000/svg" viewBox="0 0 512 512">
  <defs>
    <linearGradient id="grad1" x1="0%" y1="0%" x2="100%" y2="100%">
      <stop offset="0%" style="stop-color:#8b5cf6;stop-opacity:1" />
      <stop offset="100%" style="stop-color:#4c1d95;stop-opacity:1" />
    </linearGradient>
  </defs>
  <path fill="url(#grad1)" d="M256 0C114.6 0 0 114.6 0 256s114.6 256 256 256 256-114.6 256-256S397.4 0 256 0zm0 472c-119.3 0-216-96.7-216-216S136.7 40 256 40s216 96.7 216 216-96.7 216-216 216z"/>
  <path fill="#ffffff" d="M166.9 368L130 368L130 144L177.3 144L285.4 300.6L285.4 144L322.3 144L322.3 368L275.6 368L166.9 210.3L166.9 368Z" transform="translate(30, 0)"/>
</svg>
